<svg 
 xmlns="http://www.w3.org/2000/svg"
 xmlns:xlink="http://www.w3.org/1999/xlink"
 width="23px" height="20px">
<path fill-rule="evenodd"  fill="rgb(255, 255, 255)"
 d="M20.689,5.582 C21.607,4.917 22.379,4.086 23.008,3.129 L23.008,3.129 C22.169,3.504 21.275,3.754 20.342,3.874 C21.302,3.289 22.034,2.370 22.378,1.263 C21.484,1.807 20.497,2.192 19.444,2.408 C18.595,1.484 17.385,0.912 16.065,0.912 C13.503,0.912 11.441,3.035 11.441,5.638 C11.441,6.012 11.472,6.372 11.548,6.715 C7.702,6.523 4.298,4.641 2.011,1.773 C1.612,2.480 1.377,3.289 1.377,4.161 C1.377,5.797 2.202,7.248 3.433,8.088 C2.689,8.073 1.960,7.852 1.342,7.505 C1.342,7.519 1.342,7.538 1.342,7.557 C1.342,9.853 2.946,11.761 5.049,12.200 C4.672,12.307 4.262,12.356 3.836,12.356 C3.540,12.356 3.241,12.339 2.961,12.276 C3.560,14.146 5.262,15.522 7.284,15.567 C5.710,16.825 3.710,17.582 1.547,17.582 C1.168,17.582 0.804,17.564 0.440,17.518 C2.490,18.867 4.918,19.638 7.538,19.638 C15.702,19.638 21.024,12.682 20.689,5.582 Z"/>
</svg>