<svg 
 xmlns="http://www.w3.org/2000/svg"
 xmlns:xlink="http://www.w3.org/1999/xlink"
 width="23px" height="24px">
<path fill-rule="evenodd"  fill="rgb(255, 255, 255)"
 d="M22.224,16.642 C22.073,19.999 20.534,21.868 18.494,22.681 C16.994,23.277 15.529,23.274 11.286,23.274 C7.150,23.274 4.254,23.560 2.129,21.380 C0.043,19.241 0.282,16.382 0.282,11.989 C0.282,7.696 0.011,4.770 2.129,2.598 C3.396,1.299 4.967,0.857 6.749,0.771 C8.777,0.679 13.796,0.674 15.823,0.771 C19.967,0.969 22.043,3.373 22.224,7.336 C22.315,9.416 22.319,14.562 22.224,16.642 ZM20.308,11.989 C20.308,8.976 20.296,8.619 20.244,7.428 C20.013,2.209 16.176,2.735 11.286,2.735 L11.245,2.707 C8.302,2.707 7.958,2.721 6.789,2.764 C1.701,3.031 2.221,6.776 2.221,11.975 C2.221,15.817 1.941,18.351 3.488,19.930 C4.830,21.310 6.670,21.241 11.258,21.241 C15.715,21.241 17.641,21.368 19.029,19.944 C20.394,18.537 20.308,16.639 20.308,11.989 ZM17.161,7.319 C16.431,7.319 15.840,6.712 15.840,5.966 C15.840,5.219 16.432,4.612 17.161,4.612 C17.888,4.611 18.481,5.219 18.481,5.966 C18.481,6.714 17.889,7.319 17.161,7.319 ZM11.286,17.784 C8.166,17.784 5.635,15.191 5.635,11.989 C5.635,8.789 8.163,6.195 11.286,6.195 C14.406,6.195 16.937,8.787 16.937,11.989 C16.937,15.188 14.408,17.784 11.286,17.784 ZM11.286,8.227 C9.259,8.227 7.618,9.911 7.618,11.989 C7.618,14.067 9.259,15.751 11.286,15.751 C13.313,15.751 14.954,14.067 14.954,11.989 C14.954,9.911 13.313,8.227 11.286,8.227 Z"/>
</svg>